<svg t="1677644956056" class="icon" viewBox="0 0 1489 1024" version="1.1" xmlns="http://www.w3.org/2000/svg"
     p-id="19096" width="200" height="200">
    <path
        d="M668.485818 0c203.869091 0 370.688 154.996364 382.696727 350.487273 27.834182-6.981818 56.971636-10.612364 86.94691-10.612364C1332.130909 339.874909 1489.454545 492.916364 1489.454545 681.797818c0 188.974545-157.323636 342.016-351.232 342.202182H320.698182C143.639273 1024 0 884.177455 0 711.773091c0-161.047273 125.300364-293.701818 286.161455-310.365091-0.651636-9.309091-0.930909-18.618182-0.93091-28.206545C285.137455 167.191273 456.610909 0 668.392727 0zM531.828364 435.851636h-94.952728L293.515636 837.818182h87.784728l27.834181-82.664727h148.014546L583.121455 837.818182h91.042909l-142.429091-401.966546z m370.315636 0h-175.010909V837.818182h83.409454V693.248h85.364364c66.839273 0 66.839273 0 102.865455-29.416727 35.933091-29.509818 35.933091-29.509818 35.933091-100.631273 0-65.163636 0-65.163636-35.933091-96.256-30.906182-26.717091-30.906182-26.717091-79.778909-30.533818l-16.756364-0.558546z m272.477091 0h-83.409455V837.818182h83.409455V435.851636z m-691.106909 91.880728l50.269091 158.254545H431.662545l51.758546-158.254545z m405.317818-22.062546c29.789091 0 29.789091 0 46.173091 13.312 16.570182 13.405091 16.570182 13.405091 16.570182 44.683637 0 31.464727 0 31.464727-16.570182 45.893818-16.477091 14.429091-16.477091 14.429091-46.173091 14.429091h-78.289455V505.669818h78.196364z"
        fill="#ffffff" p-id="19097"></path>
</svg>
