<?xml version="1.0" standalone="no"?><!DOCTYPE svg PUBLIC "-//W3C//DTD SVG 1.1//EN"
    "http://www.w3.org/Graphics/SVG/1.1/DTD/svg11.dtd">
<svg t="1681783186820" class="icon" viewBox="0 0 1033 1024" version="1.1" xmlns="http://www.w3.org/2000/svg" p-id="3263">
    <path
        d="M1003.825182 265.580794L565.046934 17.610441a75.435266 75.435266 0 0 0-96.904484 0L29.381961 265.580794a34.485708 34.485708 0 0 0-7.760172 5.931115 76.127822 76.127822 0 0 0 0 106.546987 34.485708 34.485708 0 0 0 7.760172 5.931115l438.760489 247.970353a73.801546 73.801546 0 0 0 96.904484 0l438.778248-247.970353a34.87638 34.87638 0 0 0 7.760172-5.931115 76.14558 76.14558 0 0 0 0-106.546987 34.87638 34.87638 0 0 0-7.760172-5.931115z m-41.127137 59.790617L527.045176 571.601496a35.977366 35.977366 0 0 0-7.760172 5.931116 3.391746 3.391746 0 0 1-5.32735 0 35.515662 35.515662 0 0 0-7.760172-5.931116L70.544613 325.371411a4.315153 4.315153 0 0 1 0-1.172017L506.197482 77.969309a35.515662 35.515662 0 0 0 7.760172-5.931116 3.35623 3.35623 0 0 1 5.32735 0 35.977366 35.977366 0 0 0 7.760172 5.931116l435.652869 246.230085a3.249683 3.249683 0 0 1 0 1.172017z m6.730218 183.100996L527.045176 758.48491a34.87638 34.87638 0 0 0-7.760172 5.931116 3.391746 3.391746 0 0 1-5.32735 0 34.485708 34.485708 0 0 0-7.760172-5.931116L63.832153 508.472407a35.018443 35.018443 0 0 0-47.946144 13.780077 35.977366 35.977366 0 0 0 13.620257 48.620941l438.760489 247.970353a73.801546 73.801546 0 0 0 96.904484 0l438.778247-247.970353a35.995124 35.995124 0 0 0 13.620257-48.620941 35.000685 35.000685 0 0 0-48.14148-13.780077z m0 186.883414L527.045176 945.368324a34.87638 34.87638 0 0 0-7.760172 5.931116 3.391746 3.391746 0 0 1-5.32735 0 34.485708 34.485708 0 0 0-7.760172-5.931116L63.832153 695.355821a35.018443 35.018443 0 0 0-47.946144 13.780077 35.977366 35.977366 0 0 0 13.620257 48.620941l438.760489 247.970353a73.801546 73.801546 0 0 0 96.904484 0l438.778247-247.970353a35.995124 35.995124 0 0 0 13.620257-48.620941 35.000685 35.000685 0 0 0-48.14148-13.780077z"
        fill="#108cff" p-id="3264"></path>
</svg>
