<?xml version="1.0" standalone="no"?><!DOCTYPE svg PUBLIC "-//W3C//DTD SVG 1.1//EN" "http://www.w3.org/Graphics/SVG/1.1/DTD/svg11.dtd"><svg t="1681784740896" class="icon" viewBox="0 0 1024 1024" version="1.1" xmlns="http://www.w3.org/2000/svg" p-id="8738" xmlns:xlink="http://www.w3.org/1999/xlink"><path d="M118.04 109.23c19.33-14.05 43.09-21.82 66.98-21.99 218.33 0.02 436.67 0 655 0.02 35.42 0.39 70.06 18.19 91.04 46.72 13.63 18.1 21.71 40.3 22.89 62.93 0.5 7.69 0.24 15.39 0.3 23.09 0 147.66 0 295.33 0.01 443 0.16 13.17-0.98 26.47-4.84 39.13-8.92 30.77-31.32 57.23-60.05 71.33-14.41 7.15-30.33 11.18-46.39 11.88-10.01 0.36-20.02 0.07-30.02 0.16-92.58 0.03-185.16-0.06-277.73 0.05 0.05 34.89 0 69.79 0.03 104.69 90.24 0.02 180.49 0 270.73 0.01 6.71-0.02 13.32 3.09 17.62 8.24 6.46 7.35 7.19 18.92 2.07 27.2-3.1 4.96-8.07 8.79-13.77 10.26-3.88 1.12-7.95 0.75-11.93 0.8H217.95c-6.43-0.01-12.79-2.86-17.07-7.68-6.87-7.3-7.84-19.24-2.59-27.71 4.1-6.73 11.75-11.15 19.66-11.1 90.26-0.02 180.53 0 270.8-0.02V785.51c-100.27 0-200.53-0.02-300.8 0-18.4 0.14-36.87-3.84-53.36-12.07-27.85-13.69-49.76-38.98-59.17-68.58-3.91-11.88-5.56-24.39-5.67-36.87V222.98c0.07-13.72-0.57-27.59 2.11-41.13 5.34-28.94 22.3-55.46 46.18-72.62m56.49 25.52c-18.74 3.18-35.96 14.35-46.42 30.23-7.94 11.73-11.9 25.9-11.85 40.03-0.02 150.65 0 301.31-0.01 451.97-0.06 10.13-0.26 20.44 2.54 30.28 6.14 23.24 25.09 42.49 48.23 48.97 11.99 3.67 24.64 2.63 36.99 2.77 211.03 0 422.05-0.01 633.08 0.01 12.38-0.04 24.8-3.15 35.5-9.44 15.64-8.95 27.51-24.17 32.4-41.51 3.85-13 2.51-26.68 2.76-40.04V217.01c-0.04-8.63 0.34-17.34-1.25-25.87-2.97-16.32-11.96-31.48-24.93-41.83-12.2-9.92-27.82-15.5-43.53-15.57-217.69 0.03-435.38-0.01-653.07 0.02-3.5 0.06-6.99 0.43-10.44 0.99z" p-id="8739" fill="#108cff"></path><path d="M397.33 257.34c75.88-0.23 151.78 0 227.67-0.11 7.99-0.44 15.97 3.85 20.22 10.6 2.2 3.43 3.15 7.44 4.39 11.28 22.58 71.46 45.17 142.92 67.76 214.38 3.1 9.18-0.4 20.02-8.2 25.75-60.67 45.31-121.37 90.59-182.05 135.9-8.03 6.27-20.22 6.27-28.25 0-60.7-45.31-121.43-90.58-182.13-135.89-7.9-5.71-11.28-16.66-8.17-25.87 23.2-73.4 46.39-146.81 69.61-220.21 2.64-8.36 10.38-14.91 19.15-15.83m20.04 46.4c-19.88 62.67-39.63 125.37-59.48 188.05 51.67 38.62 103.42 77.14 155.1 115.74 51.67-38.6 103.4-77.11 155.03-115.77-19.94-62.66-39.54-125.43-59.56-188.05-63.7 0.09-127.4 0.02-191.09 0.03z" p-id="8740" fill="#108cff"></path><path d="M462.44 377.55c12.16-0.69 24.39-0.11 36.58-0.3H554c4.02 0.03 8.14-0.32 12.04 0.91 7.22 2.02 13.24 7.81 15.54 14.95 2.79 8.15 0.6 17.8-5.58 23.83-4.38 4.51-10.71 6.96-16.97 6.82-29-0.03-58.01 0-87.01-0.01-4.01-0.05-8.13 0.36-12.01-0.88-5.58-1.54-10.56-5.24-13.49-10.25-4.73-7.64-4.44-18.09 0.76-25.42 3.43-5.15 9.12-8.58 15.16-9.65z" p-id="8741" fill="#108cff"></path></svg>
