<?xml version="1.0" standalone="no"?><!DOCTYPE svg PUBLIC "-//W3C//DTD SVG 1.1//EN" "http://www.w3.org/Graphics/SVG/1.1/DTD/svg11.dtd"><svg t="1681784268088" class="icon" viewBox="0 0 1024 1024" version="1.1" xmlns="http://www.w3.org/2000/svg" p-id="4472" xmlns:xlink="http://www.w3.org/1999/xlink"><path d="M512 987.701493c-252.179104 0-458.507463-206.328358-458.507463-458.507463s206.328358-458.507463 458.507463-458.507463 458.507463 206.328358 458.507463 458.507463-204.41791 458.507463-458.507463 458.507463z m0-840.597015c-210.149254 0-382.089552 171.940299-382.089552 382.089552s171.940299 382.089552 382.089552 382.089552 382.089552-171.940299 382.089552-382.089552-171.940299-382.089552-382.089552-382.089552z" fill="#108cff" p-id="4473"></path><path d="M512 813.850746c-156.656716 0-284.656716-128-284.656716-284.656716s128-284.656716 284.656716-284.656717 284.656716 128 284.656716 284.656717S668.656716 813.850746 512 813.850746z m0-531.104477c-135.641791 0-246.447761 110.80597-246.447761 246.447761 0 135.641791 110.80597 246.447761 246.447761 246.447761s246.447761-110.80597 246.447761-246.447761c0-135.641791-110.80597-246.447761-246.447761-246.447761z" fill="#1296db" p-id="4474"></path><path d="M512 664.835821c-74.507463 0-135.641791-61.134328-135.641791-135.641791s61.134328-135.641791 135.641791-135.641791 135.641791 61.134328 135.641791 135.641791-59.223881 135.641791-135.641791 135.641791z m0-233.074627c-53.492537 0-97.432836 43.940299-97.432836 97.432836s43.940299 97.432836 97.432836 97.432836 97.432836-43.940299 97.432836-97.432836-42.029851-97.432836-97.432836-97.432836z" fill="#1296db" p-id="4475"></path><path d="M492.895522 645.731343h38.208956v202.507463h-38.208956zM492.895522 208.238806h38.208956v202.507463h-38.208956zM173.850746 510.089552H401.19403v38.208955H173.850746zM624.716418 510.089552h208.238806v38.208955H624.716418z" fill="#1296db" p-id="4476"></path></svg>
