<?xml version="1.0" standalone="no"?><!DOCTYPE svg PUBLIC "-//W3C//DTD SVG 1.1//EN" "http://www.w3.org/Graphics/SVG/1.1/DTD/svg11.dtd"><svg t="1681882322810" class="icon" viewBox="0 0 1024 1024" version="1.1" xmlns="http://www.w3.org/2000/svg" p-id="4417" xmlns:xlink="http://www.w3.org/1999/xlink"><path d="M938.593741 180.048504L548.470909 7.6868c-23.178658-10.241183-49.76316-10.241183-72.941818 0L85.406259 180.048504C52.743273 194.476036 31.634138 226.878854 31.634138 262.592909v498.814182c0 35.714055 21.109135 68.116873 53.772121 82.55623l390.111006 172.361705c11.589329 5.120591 24.030119 7.674974 36.470909 7.674974s24.88158-2.566209 36.470909-7.674974l390.122832-172.361705c32.662986-14.439358 53.772121-46.842176 53.772121-82.55623v-498.814182c0-35.714055-21.109135-68.116873-53.772121-82.55623z m-17.182955 581.358587c0 7.639496-4.517473 14.557616-11.494722 17.644162L519.805058 951.412958c-4.955029 2.187781-10.643261 2.187781-15.59829 0L114.083936 779.051253A19.297415 19.297415 0 0 1 102.589214 761.407091v-498.814182c0-7.639496 4.517473-14.557616 11.494722-17.644162L504.206768 72.587042c4.955029-2.187781 10.643261-2.187781 15.59829 0l390.111006 172.361705c6.989075 3.086546 11.494722 10.016492 11.494722 17.644162v498.814182z" p-id="4418" fill="#108cff"></path><path d="M285.913477 512m-63.339231 0a63.339231 63.339231 0 1 0 126.678462 0 63.339231 63.339231 0 1 0-126.678462 0Z" p-id="4419" fill="#108cff"></path><path d="M514.081349 512m-63.339231 0a63.339231 63.339231 0 1 0 126.678462 0 63.339231 63.339231 0 1 0-126.678462 0Z" p-id="4420" fill="#108cff"></path><path d="M742.237395 512m-63.339231 0a63.339231 63.339231 0 1 0 126.678461 0 63.339231 63.339231 0 1 0-126.678461 0Z" p-id="4421" fill="#108cff"></path></svg>
